<svg width="31" height="35" viewBox="0 0 31 35" fill="none" xmlns="http://www.w3.org/2000/svg">
<path d="M23.2917 20.0629C23.2917 20.4386 23.1336 20.799 22.8523 21.0646C22.571 21.3303 22.1895 21.4796 21.7917 21.4796H9.79167C9.39385 21.4796 9.01232 21.3303 8.73102 21.0646C8.44971 20.799 8.29168 20.4386 8.29168 20.0629C8.29168 19.6872 8.44971 19.3268 8.73102 19.0612C9.01232 18.7955 9.39385 18.6462 9.79167 18.6462H21.7917C22.1895 18.6462 22.571 18.7955 22.8523 19.0612C23.1336 19.3268 23.2917 19.6872 23.2917 20.0629ZM17.2917 24.3129H9.79167C9.39385 24.3129 9.01232 24.4622 8.73102 24.7278C8.44971 24.9935 8.29168 25.3538 8.29168 25.7296C8.29168 26.1053 8.44971 26.4656 8.73102 26.7313C9.01232 26.997 9.39385 27.1462 9.79167 27.1462H17.2917C17.6895 27.1462 18.071 26.997 18.3523 26.7313C18.6336 26.4656 18.7917 26.1053 18.7917 25.7296C18.7917 25.3538 18.6336 24.9935 18.3523 24.7278C18.071 24.4622 17.6895 24.3129 17.2917 24.3129ZM30.7916 15.0833V27.1462C30.7893 29.0242 29.9983 30.8245 28.5923 32.1524C27.1863 33.4803 25.28 34.2273 23.2917 34.2296H8.29168C6.30329 34.2273 4.39702 33.4803 2.99101 32.1524C1.58501 30.8245 0.794069 29.0242 0.791687 27.1462V7.31291C0.794069 5.43499 1.58501 3.63462 2.99101 2.30673C4.39702 0.978835 6.30329 0.231835 8.29168 0.229586H15.0642C16.4436 0.226233 17.81 0.481168 19.0845 0.979652C20.359 1.47814 21.5161 2.21028 22.4892 3.13375L27.7151 8.07225C28.6935 8.99059 29.4692 10.0831 29.9973 11.2866C30.5254 12.4901 30.7954 13.7806 30.7916 15.0833ZM20.3682 5.13692C19.8961 4.70506 19.3661 4.33356 18.7917 4.03192V10.1462C18.7917 10.522 18.9497 10.8823 19.231 11.148C19.5123 11.4137 19.8938 11.5629 20.2917 11.5629H26.7657C26.4461 11.0206 26.0522 10.5204 25.5942 10.0754L20.3682 5.13692ZM27.7916 15.0833C27.7916 14.8496 27.7436 14.6257 27.7211 14.3962H20.2917C19.0982 14.3962 17.9536 13.9485 17.1097 13.1514C16.2658 12.3544 15.7917 11.2734 15.7917 10.1462V3.1295C15.5487 3.10825 15.3102 3.06292 15.0642 3.06292H8.29168C7.0982 3.06292 5.95361 3.51068 5.1097 4.30771C4.26579 5.10474 3.79168 6.18574 3.79168 7.31291V27.1462C3.79168 28.2734 4.26579 29.3544 5.1097 30.1514C5.95361 30.9485 7.0982 31.3962 8.29168 31.3962H23.2917C24.4851 31.3962 25.6297 30.9485 26.4736 30.1514C27.3175 29.3544 27.7916 28.2734 27.7916 27.1462V15.0833Z" fill="#858585"/>
</svg>
