<svg width="31" height="31" viewBox="0 0 31 31" fill="none" xmlns="http://www.w3.org/2000/svg">
<path d="M15.2585 0.229492C11.5658 0.240663 8.00634 1.61017 5.25848 4.07699V0.229492H2.75848V6.65824C2.75915 7.27367 3.00392 7.86371 3.43909 8.29888C3.87427 8.73406 4.4643 8.97883 5.07973 8.97949H11.5085V6.47949H6.35723C8.38881 4.42146 11.072 3.13274 13.9483 2.83353C16.8247 2.53432 19.7156 3.24318 22.1273 4.83901C24.539 6.43484 26.3217 8.81859 27.1708 11.583C28.0199 14.3473 27.8828 17.3208 26.7828 19.9953C25.6828 22.6698 23.6883 24.8793 21.1399 26.2464C18.5916 27.6134 15.6477 28.0532 12.8111 27.4905C9.97451 26.9278 7.42134 25.3975 5.58783 23.1612C3.75432 20.9249 2.75424 18.1213 2.75848 15.2295H0.258484C0.258484 18.1962 1.13822 21.0963 2.78644 23.563C4.43466 26.0298 6.77734 27.9524 9.51823 29.0877C12.2591 30.223 15.2751 30.52 18.1848 29.9413C21.0945 29.3625 23.7673 27.9339 25.8651 25.8361C27.9629 23.7383 29.3915 21.0656 29.9703 18.1558C30.549 15.2461 30.252 12.2301 29.1167 9.48924C27.9814 6.74835 26.0588 4.40567 23.592 2.75745C21.1253 1.10923 18.2252 0.229492 15.2585 0.229492Z" fill="#858585"/>
<path d="M14.0085 8.97949V15.747L18.1247 19.8632L19.8922 18.0957L16.5085 14.712V8.97949H14.0085Z" fill="#858585"/>
</svg>
