<svg width="140" height="140" viewBox="0 0 140 140" fill="none" xmlns="http://www.w3.org/2000/svg">
<circle cx="70" cy="70" r="70" fill="#8145DB"/>
<path d="M87.9877 55.8306H79.5537V46.8958L87.9877 55.8306ZM89.1074 59.879V94.2905H50.8926V51.7822C50.8926 50.1716 51.4966 48.627 52.5716 47.4882C53.6466 46.3494 55.1046 45.7096 56.6248 45.7096H75.7322V59.879H89.1074ZM60.4463 78.0968H73.8215V74.0484H60.4463V78.0968ZM79.5537 82.1452H60.4463V86.1936H79.5537V82.1452ZM79.5537 65.9516H60.4463V70H79.5537V65.9516Z" fill="white"/>
<path d="M39.5 67.1667H100.5V72.8333H39.5V67.1667ZM44.5833 95.5V84.1667H39.5V95.5C39.5 100.186 42.9211 104 47.125 104H57.2917V98.3333H47.125C45.7245 98.3333 44.5833 97.0612 44.5833 95.5ZM95.4167 95.5C95.4167 97.0612 94.2755 98.3333 92.875 98.3333H82.7083V104H92.875C97.0789 104 100.5 100.186 100.5 95.5V84.1667H95.4167V95.5ZM92.875 36H82.7083V41.6667H92.875C94.2755 41.6667 95.4167 42.9388 95.4167 44.5V55.8333H100.5V44.5C100.5 39.8137 97.0789 36 92.875 36ZM44.5833 44.5C44.5833 42.9388 45.7245 41.6667 47.125 41.6667H57.2917V36H47.125C42.9211 36 39.5 39.8137 39.5 44.5V55.8333H44.5833V44.5Z" fill="white"/>
</svg>
