<svg width="24" height="25" viewBox="0 0 24 25" fill="none" xmlns="http://www.w3.org/2000/svg">
<path d="M-4.57764e-05 11.0161H24V13.0161H-4.57764e-05V11.0161ZM1.99995 21.0161V17.0161H-4.57764e-05V21.0161C-4.57764e-05 22.6701 1.34595 24.0161 2.99995 24.0161H6.99995V22.0161H2.99995C2.44895 22.0161 1.99995 21.5671 1.99995 21.0161ZM22 21.0161C22 21.5671 21.551 22.0161 21 22.0161H17V24.0161H21C22.654 24.0161 24 22.6701 24 21.0161V17.0161H22V21.0161ZM21 0.0160522H17V2.01605H21C21.551 2.01605 22 2.46505 22 3.01605V7.01605H24V3.01605C24 1.36205 22.654 0.0160522 21 0.0160522ZM1.99995 3.01605C1.99995 2.46505 2.44895 2.01605 2.99995 2.01605H6.99995V0.0160522H2.99995C1.34595 0.0160522 -4.57764e-05 1.36205 -4.57764e-05 3.01605V7.01605H1.99995V3.01605Z" fill="white"/>
</svg>
