<svg width="184" height="182" viewBox="0 0 184 182" fill="none" xmlns="http://www.w3.org/2000/svg">
<path d="M145.152 53.1265H120.23V29.2706L145.152 53.1265ZM148.461 63.9357V155.814H35.5393V42.3173C35.5393 38.0171 37.3239 33.893 40.5004 30.8524C43.6769 27.8117 47.9852 26.1035 52.4775 26.1035H108.938V63.9357H148.461ZM63.7696 112.577H103.292V101.768H63.7696V112.577ZM120.23 123.386H63.7696V134.196H120.23V123.386ZM120.23 80.1495H63.7696V90.9587H120.23V80.1495Z" fill="#E2E2E2" fill-opacity="0.8"/>
<path d="M0.370148 83.3937H183.63V98.5236H0.370148V83.3937ZM15.6418 159.043V128.784H0.370148V159.043C0.370148 171.556 10.648 181.738 23.2776 181.738H53.8209V166.608H23.2776C19.0703 166.608 15.6418 163.212 15.6418 159.043ZM168.358 159.043C168.358 163.212 164.93 166.608 160.722 166.608H130.179V181.738H160.722C173.352 181.738 183.63 171.556 183.63 159.043V128.784H168.358V159.043ZM160.722 0.178986H130.179V15.3089H160.722C164.93 15.3089 168.358 18.7056 168.358 22.8739V53.1338H183.63V22.8739C183.63 10.3614 173.352 0.178986 160.722 0.178986ZM15.6418 22.8739C15.6418 18.7056 19.0703 15.3089 23.2776 15.3089H53.8209V0.178986H23.2776C10.648 0.178986 0.370148 10.3614 0.370148 22.8739V53.1338H15.6418V22.8739Z" fill="#D0D0D0" fill-opacity="0.8"/>
</svg>
